<svg xmlns="http://www.w3.org/2000/svg" viewBox="0 0 1920 1080" preserveAspectRatio="xMidYMid slice">
  <defs>
    <linearGradient id="lounge-bg" x1="0%" y1="100%" x2="100%" y2="0%">
      <stop offset="0%" stop-color="#290016"/>
      <stop offset="50%" stop-color="#40002A"/>
      <stop offset="100%" stop-color="#5D053A"/>
    </linearGradient>
    <radialGradient id="lounge-glow" cx="70%" cy="20%" r="60%">
      <stop offset="0%" stop-color="#FF9F9F" stop-opacity="0.8"/>
      <stop offset="60%" stop-color="#FF9F9F" stop-opacity="0"/>
    </radialGradient>
    <linearGradient id="lounge-stage" x1="0%" y1="0%" x2="100%" y2="0%">
      <stop offset="0%" stop-color="#FFE1F0" stop-opacity="0.9"/>
      <stop offset="100%" stop-color="#FFD0E7" stop-opacity="0.6"/>
    </linearGradient>
    <linearGradient id="lounge-seat" x1="0%" y1="0%" x2="100%" y2="100%">
      <stop offset="0%" stop-color="#46001F"/>
      <stop offset="100%" stop-color="#2B0012"/>
    </linearGradient>
  </defs>
  <rect width="1920" height="1080" fill="url(#lounge-bg)"/>
  <rect width="1920" height="1080" fill="url(#lounge-glow)"/>
  <g fill="#FFCDD6" opacity="0.35">
    <circle cx="320" cy="140" r="18"/>
    <circle cx="680" cy="120" r="22"/>
    <circle cx="1180" cy="90" r="18"/>
    <circle cx="1520" cy="130" r="24"/>
    <circle cx="1720" cy="70" r="15"/>
  </g>
  <rect x="520" y="260" width="880" height="430" rx="50" fill="#210013" opacity="0.5"/>
  <rect x="560" y="295" width="800" height="360" rx="40" fill="url(#lounge-stage)"/>
  <rect x="590" y="330" width="740" height="130" rx="32" fill="#FFFFFF" opacity="0.18"/>
  <g transform="translate(520,560)">
    <g fill="url(#lounge-seat)" opacity="0.95">
      <rect x="0" y="0" width="160" height="120" rx="32"/>
      <rect x="180" y="0" width="160" height="120" rx="32"/>
      <rect x="360" y="0" width="160" height="120" rx="32"/>
      <rect x="540" y="0" width="160" height="120" rx="32"/>
      <rect x="720" y="0" width="160" height="120" rx="32"/>
    </g>
    <g fill="#5A0532" opacity="0.9" transform="translate(70,90)">
      <rect x="0" y="0" width="160" height="110" rx="28"/>
      <rect x="180" y="0" width="160" height="110" rx="28"/>
      <rect x="360" y="0" width="160" height="110" rx="28"/>
      <rect x="540" y="0" width="160" height="110" rx="28"/>
    </g>
  </g>
  <path d="M460 250 Q960 170 1460 250" stroke="#FFC2D6" stroke-width="18" stroke-linecap="round" opacity="0.35"/>
  <ellipse cx="960" cy="890" rx="620" ry="150" fill="#1A0010" opacity="0.7"/>
  <path d="M500 830 Q960 900 1420 830" stroke="#300017" stroke-width="28" stroke-linecap="round" opacity="0.65"/>
</svg>
